<mxfile host="app.diagrams.net" modified="2023-09-21T17:15:38.345Z" agent="Mozilla/5.0 (Windows NT 10.0; Win64; x64) AppleWebKit/537.36 (KHTML, like Gecko) Chrome/117.0.0.0 Safari/537.36" etag="c5s1P7O8OJ6oYCODMnWt" version="21.7.0" type="github">
  <diagram name="Page-1" id="f1b7ffb7-ca1e-a977-7cf5-a751b3c06c05">
    <mxGraphModel dx="1050" dy="1804" grid="1" gridSize="10" guides="1" tooltips="1" connect="1" arrows="1" fold="1" page="1" pageScale="1" pageWidth="826" pageHeight="1169" background="#ffffff" math="0" shadow="0">
      <root>
        <mxCell id="0" />
        <mxCell id="1" parent="0" />
        <mxCell id="lbt7oGuOz0SizSvNUz5w-61" value="" style="shape=image;verticalLabelPosition=bottom;labelBackgroundColor=default;verticalAlign=top;aspect=fixed;imageAspect=0;image=https://lanit.com.vn/wp-content/uploads/2022/10/oauth2-la-gi-03.png;" vertex="1" parent="1">
          <mxGeometry x="26" y="210" width="800" height="300" as="geometry" />
        </mxCell>
        <mxCell id="lbt7oGuOz0SizSvNUz5w-63" value="" style="shape=image;verticalLabelPosition=bottom;labelBackgroundColor=default;verticalAlign=top;aspect=fixed;imageAspect=0;image=https://lanit.com.vn/wp-content/uploads/2022/10/oauth2-la-gi-01.png;" vertex="1" parent="1">
          <mxGeometry x="26" y="-300" width="800" height="418" as="geometry" />
        </mxCell>
        <mxCell id="lbt7oGuOz0SizSvNUz5w-64" value="" style="shape=image;verticalLabelPosition=bottom;labelBackgroundColor=default;verticalAlign=top;aspect=fixed;imageAspect=0;image=https://lanit.com.vn/wp-content/uploads/2022/10/oauth2-la-gi-04.png;" vertex="1" parent="1">
          <mxGeometry x="870" y="20" width="800" height="255" as="geometry" />
        </mxCell>
        <mxCell id="lbt7oGuOz0SizSvNUz5w-65" value="" style="shape=image;verticalLabelPosition=bottom;labelBackgroundColor=default;verticalAlign=top;aspect=fixed;imageAspect=0;image=https://images.viblo.asia/8edbf2b6-9e01-4f3c-a8ef-331c8f087114.png;" vertex="1" parent="1">
          <mxGeometry x="860" y="-890" width="519" height="426" as="geometry" />
        </mxCell>
        <mxCell id="lbt7oGuOz0SizSvNUz5w-66" value="Session Fixatoin" style="text;strokeColor=none;fillColor=none;html=1;align=center;verticalAlign=middle;whiteSpace=wrap;rounded=0;fontSize=16;" vertex="1" parent="1">
          <mxGeometry x="910" y="-450" width="440" height="30" as="geometry" />
        </mxCell>
      </root>
    </mxGraphModel>
  </diagram>
</mxfile>
